<svg preserveAspectRatio="none" overflow="visible" style="display: block;" width="634" height="81.8002" viewBox="0 0 634 81.8002" fill="none" xmlns="http://www.w3.org/2000/svg">
<path id="Vector" d="M1 80.8L59.259 71.766Q64.2 71 69.157 70.341L122.444 63.259Q127.4 62.6 132.232 61.315L185.768 47.085Q190.6 45.8 195.482 44.719L248.918 32.881Q253.8 31.8 258.723 30.928L312.077 21.472Q317 20.6 321.98 20.159L375.22 15.441Q380.2 15 385.189 14.668L438.411 11.132Q443.4 10.8 448.389 10.468L501.611 6.932Q506.6 6.6 511.595 6.379L564.805 4.021Q569.8 3.8 574.795 3.579L633 1" stroke="#2563EB" stroke-width="2" stroke-linecap="round" stroke-linejoin="round"/>
</svg>
